# File created by Blade
# Date/Time:  Wed Jan 21 16:33:30 2015
# Frame Rate: 120.000 fps
#------------------------------------------------------
:FULLY-SPECIFIED
:DEGREES
729
root 26.632278 25.404879 -25.847831 -63.367549 92.386735 10.207842
Spine -50.963142 -0.373248 4.113174
Head -74.625785 4.855314 1.241612
LeftShoulder -22.186814 -60.544392 54.289690
LeftArm 28.976877 -41.995549 14.339820
LeftForeArm -26.049402 -0.000000 5.912248
LeftHand -4.306696 -0.000000 92.636896
LeftHandThumb1 -26.253704 0.000000 33.147579
RightShoulder -12.257816 25.930273 -39.105877
RightArm -2.064790 69.981247 -36.870171
RightForeArm -11.487963 0.000000 8.069894
RightHand -3.203969 -0.000000 -96.909251
RightHandThumb1 -24.326973 -0.000000 -32.862282
LeftUpLeg 10.867547 5.864211 10.748451
LeftLeg 81.906185 -0.000000 -0.000000
LeftFoot -39.296967 25.768776 -16.514236
LeftToeBase 22.758910 -0.000000 -0.000000
RightUpLeg 11.348753 4.215845 -10.629417
RightLeg 80.457755 -0.000000 -0.000000
RightFoot -38.268130 -29.543213 23.868414
RightToeBase 19.649543 -0.000000 -0.000000
730
root 26.617752 25.406800 -25.833279 -62.340701 92.355712 11.291966
Spine -50.850497 -0.422624 4.121266
Head -74.741716 4.853407 1.250564
LeftShoulder -22.127616 -60.500940 54.229876
LeftArm 28.827841 -42.065466 14.550210
LeftForeArm -26.107059 -0.000000 5.936503
LeftHand -4.315546 -0.000000 92.689334
LeftHandThumb1 -26.253704 0.000000 33.147579
RightShoulder -12.305793 25.893203 -39.086240
RightArm -2.363509 70.013428 -37.173889
RightForeArm -11.441699 -0.000000 7.983233
RightHand -3.221666 -0.000000 -96.973758
RightHandThumb1 -24.326973 -0.000000 -32.862282
LeftUpLeg 10.904898 5.794375 10.796456
LeftLeg 81.882668 -0.000000 -0.000000
LeftFoot -39.256166 25.756390 -16.495929
LeftToeBase 22.720430 -0.000000 -0.000000
RightUpLeg 11.392715 4.138131 -10.598764
RightLeg 80.438443 -0.000000 -0.000000
RightFoot -38.273840 -29.463388 24.042138
RightToeBase 19.334835 -0.000000 -0.000000
731
root 26.598781 25.404180 -25.827672 -63.142789 92.338875 10.468011
Spine -50.838421 -0.407914 4.100731
Head -74.732596 4.952950 1.204559
LeftShoulder -22.502329 -60.653393 54.516650
LeftArm 29.110731 -42.004753 14.306900
LeftForeArm -26.025253 -0.000000 5.920804
LeftHand -4.262621 -0.000000 92.657182
LeftHandThumb1 -26.253704 0.000000 33.147579
RightShoulder -12.321409 25.916044 -39.097974
RightArm -2.568107 69.953676 -37.358824
RightForeArm -11.348443 -0.000000 7.913219
RightHand -3.225555 0.000000 -97.040803
RightHandThumb1 -24.326973 -0.000000 -32.862282
LeftUpLeg 10.869516 5.799783 10.746439
LeftLeg 81.847065 -0.000000 -0.000000
LeftFoot -39.210253 25.804251 -16.479025
LeftToeBase 22.818024 -0.000000 -0.000000
RightUpLeg 11.320202 4.130412 -10.652551
RightLeg 80.432685 -0.000000 -0.000000
RightFoot -38.238452 -29.504716 23.885578
RightToeBase 19.592573 -0.000000 -0.000000
732
root 26.582983 25.400370 -25.818120 -63.473957 92.328150 10.119809
Spine -50.813305 -0.413638 4.070603
Head -74.738108 4.962257 1.223879
LeftShoulder -22.594909 -60.626230 54.588907
LeftArm 29.102292 -42.077599 14.314032
LeftForeArm -26.008107 -0.000000 5.947220
LeftHand -4.256040 -0.000000 92.720691
LeftHandThumb1 -26.253704 0.000000 33.147579
RightShoulder -12.355721 25.903196 -39.113205
RightArm -2.812740 69.923223 -37.568880
RightForeArm -11.225626 -0.000000 7.880530
RightHand -3.288167 -0.000000 -97.126388
RightHandThumb1 -24.326973 -0.000000 -32.862282
LeftUpLeg 10.829571 5.779336 10.712773
LeftLeg 81.828555 -0.000000 -0.000000
LeftFoot -39.161971 25.823136 -16.468382
LeftToeBase 22.790773 -0.000000 -0.000000
RightUpLeg 11.260454 4.093477 -10.688499
RightLeg 80.444207 -0.000000 -0.000000
RightFoot -38.254518 -29.507424 23.914677
RightToeBase 19.399478 -0.000000 -0.000000
733
root 26.569108 25.395656 -25.805742 -63.396088 92.309338 10.179943
Spine -50.792854 -0.433054 4.045767
Head -74.760884 4.970857 1.259808
LeftShoulder -22.602917 -60.597960 54.578677
LeftArm 29.080788 -42.146984 14.392926
LeftForeArm -26.058636 0.000000 5.954131
LeftHand -4.288097 0.000000 92.636990
LeftHandThumb1 -26.253704 0.000000 33.147579
RightShoulder -12.387704 25.898907 -39.105109
RightArm -3.008655 69.902516 -37.753288
RightForeArm -11.058294 -0.000000 7.850391
RightHand -3.275538 -0.000000 -97.222633
RightHandThumb1 -24.326973 -0.000000 -32.862282
LeftUpLeg 10.784410 5.753735 10.709687
LeftLeg 81.816364 -0.000000 -0.000000
LeftFoot -39.104487 25.858410 -16.452291
LeftToeBase 22.815537 -0.000000 -0.000000
RightUpLeg 11.199772 4.037877 -10.708439
RightLeg 80.454676 -0.000000 -0.000000
RightFoot -38.210521 -29.503078 23.905654
RightToeBase 19.262524 -0.000000 -0.000000
734
root 26.556343 25.391203 -25.793023 -63.729380 92.270669 9.840356
Spine -50.758504 -0.417757 4.026851
Head -74.787189 4.949080 1.305438
LeftShoulder -22.561726 -60.583016 54.525573
LeftArm 29.016652 -42.182021 14.522830
LeftForeArm -26.130130 0.000000 5.966984
LeftHand -4.379166 -0.000000 92.667216
LeftHandThumb1 -26.253704 0.000000 33.147579
RightShoulder -12.404959 25.921228 -39.103707
RightArm -3.239657 69.866440 -37.945980
RightForeArm -10.962014 -0.000000 7.891340
RightHand -3.142232 0.000000 -96.986238
RightHandThumb1 -24.326973 -0.000000 -32.862282
LeftUpLeg 10.761712 5.747488 10.724954
LeftLeg 81.799774 -0.000000 -0.000000
LeftFoot -39.043430 25.886277 -16.428435
LeftToeBase 22.808740 -0.000000 -0.000000
RightUpLeg 11.148980 4.009485 -10.708466
RightLeg 80.468245 -0.000000 -0.000000
RightFoot -38.177119 -29.463746 23.914415
RightToeBase 18.887825 -0.000000 -0.000000
735
root 26.545976 25.387061 -25.779536 -64.568727 92.215967 9.002532
Spine -50.711413 -0.380542 4.022582
Head -74.767620 4.944076 1.329771
LeftShoulder -22.451866 -60.489854 54.425339
LeftArm 28.835201 -42.239737 14.724005
LeftForeArm -26.212792 0.000000 5.982537
LeftHand -4.293481 -0.000000 92.677401
LeftHandThumb1 -26.253704 0.000000 33.147579
RightShoulder -12.392341 25.965998 -39.119653
RightArm -3.568792 69.778283 -38.221282
RightForeArm -10.873166 -0.000000 7.949967
RightHand -3.292105 0.000000 -97.345517
RightHandThumb1 -24.326973 -0.000000 -32.862282
LeftUpLeg 10.756864 5.758732 10.744858
LeftLeg 81.784822 -0.000000 -0.000000
LeftFoot -38.988290 25.895769 -16.447888
LeftToeBase 22.775263 -0.000000 -0.000000
RightUpLeg 11.094683 4.012128 -10.699645
RightLeg 80.487828 -0.000000 -0.000000
RightFoot -38.117672 -29.402419 23.909669
RightToeBase 18.751117 -0.000000 -0.000000
736
root 26.536555 25.383485 -25.767488 -65.588161 92.162019 7.994368
Spine -50.659136 -0.342723 4.023127
Head -74.736066 4.947496 1.331380
LeftShoulder -22.489351 -60.515661 54.459766
LeftArm 28.772589 -42.216310 14.789894
LeftForeArm -26.290429 -0.000000 6.039634
LeftHand -4.313697 -0.000000 92.634628
LeftHandThumb1 -26.253704 0.000000 33.147579
RightShoulder -12.384079 26.021894 -39.094981
RightArm -3.768756 69.825506 -38.415356
RightForeArm -10.950245 -0.000000 7.974687
RightHand -3.294707 -0.000000 -97.386547
RightHandThumb1 -24.326973 -0.000000 -32.862282
LeftUpLeg 10.768470 5.772409 10.762624
LeftLeg 81.766657 -0.000000 -0.000000
LeftFoot -38.942522 25.915528 -16.430612
LeftToeBase 22.792196 -0.000000 -0.000000
RightUpLeg 11.056539 4.019863 -10.693083
RightLeg 80.500784 -0.000000 -0.000000
RightFoot -38.100221 -29.521104 23.722518
RightToeBase 19.789408 -0.000000 -0.000000
737
root 26.528240 25.381595 -25.755614 -66.577448 92.114169 7.028651
Spine -50.595325 -0.305523 4.009459
Head -74.729111 4.946072 1.337530
LeftShoulder -22.620879 -60.562444 54.589910
LeftArm 28.781391 -42.197558 14.721693
LeftForeArm -26.199011 -0.000000 6.083090
LeftHand -4.306788 -0.000000 92.663820
LeftHandThumb1 -26.253704 0.000000 33.147579
RightShoulder -12.365515 26.073102 -39.087883
RightArm -4.066562 69.713384 -38.658543
RightForeArm -10.889301 -0.000000 8.053750
RightHand -3.305147 -0.000000 -97.412670
RightHandThumb1 -24.326973 -0.000000 -32.862282
LeftUpLeg 10.796516 5.778067 10.773003
LeftLeg 81.743676 -0.000000 -0.000000
LeftFoot -38.919328 25.950136 -16.434133
LeftToeBase 22.764081 -0.000000 -0.000000
RightUpLeg 11.034104 4.028734 -10.690111
RightLeg 80.514274 -0.000000 -0.000000
RightFoot -38.080540 -29.473147 23.787927
RightToeBase 19.338382 -0.000000 -0.000000
738
root 26.521242 25.380206 -25.744350 -67.342684 92.070028 6.279322
Spine -50.543854 -0.276396 3.998896
Head -74.619093 4.929900 1.323704
LeftShoulder -22.778437 -60.601634 54.756100
LeftArm 28.789000 -42.149738 14.647495
LeftForeArm -26.170284 -0.000000 6.104472
LeftHand -4.324191 -0.000000 92.646510
LeftHandThumb1 -26.253704 0.000000 33.147579
RightShoulder -12.385929 26.115756 -39.076566
RightArm -4.210781 69.621730 -38.778770
RightForeArm -10.874334 0.000000 8.071441
RightHand -3.251034 0.000000 -97.428144
RightHandThumb1 -24.326973 -0.000000 -32.862282
LeftUpLeg 10.817812 5.771667 10.781017
LeftLeg 81.725129 -0.000000 -0.000000
LeftFoot -38.905446 25.971222 -16.434611
LeftToeBase 22.756106 -0.000000 -0.000000
RightUpLeg 11.011983 4.019674 -10.683375
RightLeg 80.528841 -0.000000 -0.000000
RightFoot -38.062111 -29.451304 23.728764
RightToeBase 19.455414 -0.000000 -0.000000
739
root 26.515404 25.380024 -25.732297 -67.942710 92.024160 5.692302
Spine -50.527000 -0.252210 3.996663
Head -74.457873 4.917475 1.348289
LeftShoulder -22.904267 -60.681734 54.896028
LeftArm 28.857334 -42.067979 14.540646
LeftForeArm -26.105779 -0.000000 6.113316
LeftHand -4.371549 -0.000000 92.694723
LeftHandThumb1 -26.253704 0.000000 33.147579
RightShoulder -12.368766 26.146609 -39.047072
RightArm -4.296590 69.538273 -38.864800
RightForeArm -10.875752 -0.000000 8.119420
RightHand -3.241216 -0.000000 -97.119757
RightHandThumb1 -24.326973 -0.000000 -32.862282
LeftUpLeg 10.837479 5.765279 10.799591
LeftLeg 81.712725 -0.000000 -0.000000
LeftFoot -38.888806 25.968116 -16.440685
LeftToeBase 22.791216 -0.000000 -0.000000
RightUpLeg 10.995832 4.019889 -10.669212
RightLeg 80.531652 -0.000000 -0.000000
RightFoot -38.047680 -29.441481 23.756753
RightToeBase 19.297608 -0.000000 -0.000000
740
root 26.509755 25.378892 -25.719116 -67.703647 91.970558 5.945943
Spine -50.495073 -0.227058 4.003458
Head -74.415422 4.864499 1.337619
LeftShoulder -22.672740 -60.624918 54.733362
LeftArm 28.596354 -42.089511 14.792698
LeftForeArm -26.179026 -0.000000 6.132703
LeftHand -4.417438 -0.000000 92.715158
LeftHandThumb1 -26.253704 0.000000 33.147579
RightShoulder -12.423393 26.137661 -39.038882
RightArm -4.329059 69.523004 -38.916628
RightForeArm -10.879983 -0.000000 8.110593
RightHand -3.212166 -0.000000 -97.157120
RightHandThumb1 -24.326973 -0.000000 -32.862282
LeftUpLeg 10.846761 5.733167 10.838917
LeftLeg 81.709719 -0.000000 -0.000000
LeftFoot -38.874860 25.980656 -16.440101
LeftToeBase 22.696202 -0.000000 -0.000000
RightUpLeg 10.986914 3.993917 -10.624194
RightLeg 80.536231 -0.000000 -0.000000
RightFoot -38.040937 -29.440339 23.758878
RightToeBase 19.347191 -0.000000 -0.000000
